name Walk8.mot
datacolumns 19
datarows 22
range 1.76500000 1.87000000
endheader

                time	   L_ground_force_vx	   L_ground_force_vy	   L_ground_force_vz	   L_ground_force_px	   L_ground_force_py	   L_ground_force_pz	   R_ground_force_vx	   R_ground_force_vy	   R_ground_force_vz	   R_ground_force_px	   R_ground_force_py	   R_ground_force_pz	   L_ground_torque_x	   L_ground_torque_y	   L_ground_torque_z	   R_ground_torque_x	   R_ground_torque_y	   R_ground_torque_z	
          1.76500000	        -11.22952574	         53.88700034	         -7.44383638	         -0.12248399	          0.00000000	         -0.00266404	          0.00000000	         -0.00000000	         -0.00000000	         -0.00000000	          0.00000000	         -0.00000000	          0.00000000	          0.16060603	          0.00000000	          0.00000000	         -0.00000000	          0.00000000	
          1.77000000	        -15.86408088	         85.80394470	        -11.17918327	         -0.16069024	          0.00000000	         -0.00343565	          0.00000000	         -0.00000000	         -0.00000000	         -0.00000000	          0.00000000	         -0.00000000	          0.00000000	          0.26041546	          0.00000000	          0.00000000	         -0.00000000	          0.00000000	
          1.77500000	        -21.13502697	        124.99316210	        -15.62545699	         -0.20046518	          0.00000000	         -0.00421556	          0.00000000	         -0.00000000	         -0.00000000	         -0.00000000	          0.00000000	         -0.00000000	          0.00000000	          0.38394105	          0.00000000	          0.00000000	         -0.00000000	          0.00000000	
          1.78000000	        -26.77820796	        170.73485327	        -20.64331801	         -0.23852114	          0.00000000	         -0.00493132	          0.00000000	         -0.00000000	         -0.00000000	         -0.00000000	          0.00000000	         -0.00000000	          0.00000000	          0.52930887	          0.00000000	          0.00000000	         -0.00000000	          0.00000000	
          1.78500000	        -32.51794689	        221.38526141	        -26.00767040	         -0.27240383	          0.00000000	         -0.00553745	          0.00000000	         -0.00000000	         -0.00000000	         -0.00000000	          0.00000000	         -0.00000000	          0.00000000	          0.69176487	          0.00000000	          0.00000000	         -0.00000000	          0.00000000	
          1.79000000	        -38.26427163	        274.52093857	        -31.42638570	         -0.30084022	          0.00000000	         -0.00602374	          0.00000000	         -0.00000000	         -0.00000000	         -0.00000000	          0.00000000	         -0.00000000	          0.00000000	          0.86448485	          0.00000000	          0.00000000	         -0.00000000	          0.00000000	
          1.79500000	        -44.16589814	        327.42981002	        -36.53279385	         -0.32343352	          0.00000000	         -0.00640852	          0.00000000	         -0.00000000	         -0.00000000	         -0.00000000	          0.00000000	         -0.00000000	          0.00000000	          1.03980350	          0.00000000	          0.00000000	         -0.00000000	          0.00000000	
          1.80000000	        -50.42323132	        377.71624815	        -40.91514174	         -0.34039002	          0.00000000	         -0.00672791	          0.00000000	         -0.00000000	         -0.00000000	         -0.00000000	          0.00000000	         -0.00000000	          0.00000000	          1.20927966	          0.00000000	          0.00000000	         -0.00000000	          0.00000000	
          1.80500000	        -57.03575230	        423.60970329	        -44.20641501	         -0.35229487	          0.00000000	         -0.00702465	          0.00000000	         -0.00000000	         -0.00000000	         -0.00000000	          0.00000000	         -0.00000000	          0.00000000	          1.36221024	          0.00000000	          0.00000000	         -0.00000000	          0.00000000	
          1.81000000	        -63.67711305	        463.97835226	        -46.15192456	         -0.35993399	          0.00000000	         -0.00733797	          0.00000000	         -0.00000000	         -0.00000000	         -0.00000000	          0.00000000	         -0.00000000	          0.00000000	          1.48522237	          0.00000000	          0.00000000	         -0.00000000	          0.00000000	
          1.81500000	        -69.77494543	        498.26842865	        -46.60693636	         -0.36415916	          0.00000000	         -0.00770002	          0.00000000	         -0.00000000	         -0.00000000	          0.00000000	          0.00000000	          0.00000000	          0.00000000	          1.56382773	          0.00000000	          0.00000000	         -0.00000000	          0.00000000	
          1.82000000	        -74.75592940	        526.40038316	        -45.49849357	         -0.36579292	          0.00000000	         -0.00813759	         -0.00000000	         -0.00000000	         -0.00000000	          0.00000000	          0.00000000	          0.00000000	          0.00000000	          1.58472028	          0.00000000	          0.00000000	          0.00000000	          0.00000000	
          1.82500000	        -78.30777449	        548.60433876	        -42.79622905	         -0.36556606	          0.00000000	         -0.00867263	         -0.00000000	          0.00000000	          0.00000000	          0.00000000	          0.00000000	          0.00000000	          0.00000000	          1.53851392	          0.00000000	          0.00000000	          0.00000000	          0.00000000	
          1.83000000	        -80.47859394	        565.28281792	        -38.50496125	         -0.36408490	          0.00000000	         -0.00932103	         -0.00000000	          0.00000000	          0.00000000	          0.00000000	          0.00000000	          0.00000000	          0.00000000	          1.42149851	          0.00000000	          0.00000000	          0.00000000	          0.00000000	
          1.83500000	        -81.55991522	        576.96950874	        -32.67636241	         -0.36182457	          0.00000000	         -0.01009025	         -0.00000000	          0.00000000	          0.00000000	          0.00000000	          0.00000000	          0.00000000	          0.00000000	          1.23602723	          0.00000000	          0.00000000	          0.00000000	          0.00000000	
          1.84000000	        -81.88277204	        584.34437840	        -25.42972540	         -0.35913852	          0.00000000	         -0.01097794	         -0.00000000	          0.00000000	          0.00000000	          0.00000000	          0.00000000	          0.00000000	          0.00000000	          0.99044347	          0.00000000	          0.00000000	          0.00000000	          0.00000000	
          1.84500000	        -81.68401780	        588.23886005	        -16.97013289	         -0.35627528	          0.00000000	         -0.01197360	         -0.00000000	          0.00000000	          0.00000000	          0.00000000	          0.00000000	          0.00000000	          0.00000000	          0.69836205	          0.00000000	          0.00000000	          0.00000000	          0.00000000	
          1.85000000	        -81.09351698	        589.59139127	         -7.59629686	         -0.35339715	          0.00000000	         -0.01305780	         -0.00000000	          0.00000000	          0.00000000	          0.00000000	          0.00000000	          0.00000000	          0.00000000	          0.37834787	          0.00000000	          0.00000000	          0.00000000	          0.00000000	
          1.85500000	        -80.19635870	        589.35827684	          2.30508951	         -0.35059909	          0.00000000	         -0.01420209	         -0.00000000	          0.00000000	          0.00000000	          0.00000000	          0.00000000	          0.00000000	          0.00000000	          0.05389364	          0.00000000	          0.00000000	          0.00000000	          0.00000000	
          1.86000000	        -79.09138737	        588.40228550	         12.27481119	         -0.34792822	          0.00000000	         -0.01536990	         -0.00000000	          0.00000000	          0.00000000	          0.00000000	          0.00000000	          0.00000000	          0.00000000	         -0.24747714	          0.00000000	          0.00000000	          0.00000000	          0.00000000	
          1.86500000	        -77.89853926	        587.40316815	         21.80245215	         -0.34540322	          0.00000000	         -0.01651745	         -0.00000000	          0.00000000	          0.00000000	          0.00000000	          0.00000000	          0.00000000	          0.00000000	         -0.49525922	          0.00000000	          0.00000000	          0.00000000	          0.00000000	
          1.87000000	        -76.72006518	        586.82607516	         30.35788996	         -0.34303224	          0.00000000	         -0.01759699	         -0.00000000	          0.00000001	          0.00000000	          0.00000000	          0.00000000	          0.00000000	          0.00000000	         -0.65835619	          0.00000000	          0.00000000	          0.00000000	          0.00000000	
